<svg width="24" height="24" viewBox="0 0 24 24" fill="none" xmlns="http://www.w3.org/2000/svg">
<path d="M6.99808 9.0625H8.00192C8.03418 9.58567 8.46871 10 9 10C9.53129 10 9.96582 9.58567 9.99808 9.0625H11.0019C11.0342 9.58567 11.4687 10 12 10C12.5313 10 12.9658 9.58567 12.9981 9.0625H14.0019C14.0342 9.58567 14.4687 10 15 10C15.5313 10 15.9658 9.58567 15.9981 9.0625H17.0019C17.0342 9.58567 17.4687 10 18 10C18.5523 10 19 9.55228 19 9C19 8.93189 18.9932 8.86538 18.9802 8.8011C19.3095 8.50085 19.4075 8.00535 19.189 7.59361L17.5632 4.53111C17.3897 4.2043 17.0499 4 16.6799 4H7.32006C6.95006 4 6.61029 4.2043 6.4368 4.53111L4.81103 7.59361C4.73437 7.73801 4.69429 7.89901 4.69429 8.0625C4.69429 8.35489 4.81978 8.61797 5.01984 8.80083C5.00683 8.86519 5 8.9318 5 9C5 9.55228 5.44772 10 6 10C6.53129 10 6.96582 9.58567 6.99808 9.0625ZM4.73611 3.13262C5.06936 2.44024 5.76983 2 6.53823 2H17.4618C18.2302 2 18.9306 2.44024 19.2639 3.13262L21.9375 8.6875L22 8.84375V9C22 9.87891 21.6094 10.668 21 11.2188V19C21 20.6569 19.6569 22 18 22H6C4.34315 22 3 20.6569 3 19V11.2188C2.39062 10.668 2 9.87891 2 9V8.84375L2.0625 8.6875L4.73611 3.13262ZM13 12V20H18C18.5523 20 19 19.5523 19 19V12H13ZM5 12V19C5 19.5523 5.44772 20 6 20H11V12H5ZM10 15C9.44922 15 9 15.4492 9 16C9 16.5508 9.44922 17 10 17V15ZM14 15V17C14.5508 17 15 16.5508 15 16C15 15.4492 14.5508 15 14 15Z" fill="black" fill-opacity="0.2"/>
</svg>
