<svg width="24" height="24" viewBox="0 0 24 24" fill="none" xmlns="http://www.w3.org/2000/svg">
<path d="M12.0001 7C12.0001 5.34314 10.6569 4 9.00006 4C7.3432 4 6.00006 5.34314 6.00006 7C6.00006 8.65686 7.3432 10 9.00006 10C10.6569 10 12.0001 8.65686 12.0001 7ZM14.0001 7C14.0001 9.76143 11.7615 12 9.00006 12C6.23863 12 4.00006 9.76143 4.00006 7C4.00006 4.23858 6.23863 2 9.00006 2C11.7615 2 14.0001 4.23858 14.0001 7ZM21.0001 7.5C21.0001 9.4398 19.4501 11 17.5001 11C15.55 11 14.0001 9.4398 14.0001 7.5C14.0001 5.5602 15.55 4 17.5001 4C19.4501 4 21.0001 5.5602 21.0001 7.5ZM19.0001 7.5C19.0001 6.66183 18.3426 6 17.5001 6C16.6575 6 16.0001 6.66183 16.0001 7.5C16.0001 8.33817 16.6575 9 17.5001 9C18.3426 9 19.0001 8.33817 19.0001 7.5ZM15.9064 18.9283C16.0284 20.6085 14.6454 22 12.9572 22H4.95681C3.26854 22 1.88548 20.6085 2.0075 18.9283C2.28678 15.0828 4.26692 13 9.00006 13C13.7239 13 15.6247 15.0499 15.9064 18.9283ZM13.9117 19.0732C13.7017 16.1819 12.6057 15 9.00006 15C5.37266 15 4.20919 16.2238 4.00225 19.0732C3.96665 19.5633 4.40071 20 4.95681 20H12.9572C13.5132 20 13.9473 19.5633 13.9117 19.0732ZM17.5001 19C16.9478 19 16.5001 18.5523 16.5001 18C16.5001 17.4477 16.9478 17 17.5001 17H19.9835C19.9378 16.0137 19.8024 15.3246 19.6056 14.9472C19.1621 14.0602 18.4152 13.5 17.5001 13.5C16.5432 13.5 16.2941 13.6178 15.7901 14.1239C15.7499 14.1643 15.7499 14.1643 15.7072 14.2071C15.3166 14.5976 14.6835 14.5976 14.2929 14.2071C13.9024 13.8166 13.9024 13.1834 14.2929 12.7929C14.3318 12.7539 14.3318 12.7539 14.3729 12.7126C15.2311 11.8509 15.9733 11.5 17.5001 11.5C19.2516 11.5 20.638 12.5398 21.3866 14.0374C21.7373 14.7096 21.9234 15.6563 21.9814 16.9075C21.9832 16.9537 21.9832 16.9537 21.9835 17C21.9835 18.1046 21.0881 19 19.9835 19L17.5001 19Z" fill="black" fill-opacity="0.2"/>
</svg>
