<svg width="24" height="24" viewBox="0 0 24 24" fill="none" xmlns="http://www.w3.org/2000/svg">
<path d="M15.7581 19.4092C15.9165 19.7374 16.0053 20.1055 16.0053 20.4944C16.0053 21.8751 14.886 22.9944 13.5053 22.9944C12.6469 22.9944 11.8895 22.5617 11.4394 21.9026L10.7646 22.2922C8.9186 23.358 6.4979 22.3319 6.28959 20.3795C6.09057 18.7109 5.03745 16.1674 3.12329 12.8091C1.59162 10.1219 2.36346 6.7482 4.81889 4.97629C4.32184 4.56357 4.00532 3.94095 4.00532 3.2444C4.00532 2.00176 5.01268 0.994396 6.25532 0.994396C7.37922 0.994396 8.31065 1.81843 8.4784 2.89528C10.0778 2.24907 11.8375 2.34101 13.3252 3.0565C13.1178 3.66443 13.0053 4.31627 13.0053 4.9944C13.0053 5.05653 13.0063 5.11844 13.0081 5.18011C11.7746 4.32098 10.1064 4.19697 8.71949 4.99772L6.33599 6.37382C4.43031 7.47407 3.77119 9.90695 4.86085 11.8187C6.89675 15.3906 8.03728 18.1452 8.2769 20.155C8.32481 20.6038 9.11141 20.9373 9.7646 20.5601L19.2909 15.0601C19.9518 14.6785 20.0616 13.8291 19.6739 13.5618C18.8086 12.9144 17.8843 11.9323 16.8923 10.6117C17.5495 10.8591 18.2616 10.9944 19.0053 10.9944C19.2615 10.9944 19.5139 10.9783 19.7616 10.9472C20.1436 11.3551 20.5032 11.6853 20.8391 11.9368C22.4912 13.0714 22.149 15.7194 20.2909 16.7922L15.7581 19.4092Z" fill="black" fill-opacity="0.2"/>
<path d="M19 9C21.2091 9 23 7.20914 23 5C23 2.79086 21.2091 1 19 1C16.7909 1 15 2.79086 15 5C15 7.20914 16.7909 9 19 9Z" fill="#00B4F0"/>
</svg>
