<svg width="24" height="24" viewBox="0 0 24 24" fill="none" xmlns="http://www.w3.org/2000/svg">
<g opacity="0.4">
<path d="M11.9289 14L13.9289 12H8C7.44772 12 7 11.5523 7 11C7 10.4477 7.44772 10 8 10H14C14.5292 10 14.9624 10.411 14.9977 10.9313L16.0208 9.90812C16.4113 9.51759 17.0445 9.51759 17.435 9.90812L22.0919 14.565C22.4824 14.9555 22.4824 15.5887 22.0919 15.9792L16.364 21.7071C16.1764 21.8946 15.9221 22 15.6569 22H10V16.3431C10 16.225 10.0209 16.1089 10.0607 16H8C7.44772 16 7 15.5523 7 15C7 14.4477 7.44772 14 8 14H11.9289ZM16.7279 12.0294L12 16.7574V20H15.2426L19.9706 15.2721L16.7279 12.0294ZM6 2H16C17.5 2 19 3.5 19 5V7C19 7.55228 18.5523 8 18 8C17.4477 8 17 7.55228 17 7V5C17 4.44772 16.5523 4 16 4H6C5.44772 4 5 4.44772 5 5V18C5 18.5523 5.44772 19 6 19H7C7.55228 19 8 19.4477 8 20C8 20.5523 7.55228 21 7 21H6C4.5 21 3 19.5 3 18V5C3 3.5 4.5 2 6 2ZM7 7C7 6.44772 7.44772 6 8 6H14C14.5523 6 15 6.44772 15 7C15 7.55228 14.5523 8 14 8H8C7.44772 8 7 7.55228 7 7Z" fill="white"/>
</g>
</svg>
