<svg width="28" height="37" viewBox="0 0 28 37" fill="none" xmlns="http://www.w3.org/2000/svg">
<path d="M27.0001 23.7174L20.616 32.9563C19.7638 34.1866 18.532 34.8926 17.2368 34.8932H7.62024L5.95014 37L0 29.6829L4.26506 24.3366C6.03179 22.1224 8.64602 21.376 10.9964 22.4148L11.9362 22.8301H17.6948C18.1858 22.8298 18.656 23.0807 18.9978 23.5254C19.3397 23.9702 19.5239 24.5707 19.5085 25.1899C19.4525 26.4474 18.6213 27.4261 17.6229 27.4099H14.16C13.8972 27.3883 13.6467 27.5529 13.5101 27.8369C13.3735 28.121 13.3735 28.4772 13.5101 28.7613C13.6467 29.0453 13.8972 29.2099 14.16 29.1883H17.6229C19.3788 29.191 20.8275 27.455 20.9153 25.2427C20.9153 25.2427 20.9153 25.205 20.9153 25.1861L24.1148 20.6554C24.7899 19.6672 25.9614 19.5226 26.7756 20.3269C27.1669 20.7348 27.4113 21.3244 27.4536 21.9625C27.4958 22.6006 27.3323 23.2333 27.0001 23.7174ZM24.5069 4.0087V4.4882C24.5069 5.01301 24.5069 5.55292 24.5249 6.13059C24.5638 8.67158 24.6057 11.6505 23.9262 14.4369C22.9837 18.2092 20.2106 20.7745 17.0752 20.7745C13.9398 20.7745 11.1667 18.2092 10.2242 14.4369C9.53877 11.6543 9.58068 8.67913 9.62557 6.13059C9.62557 5.5567 9.64353 4.99791 9.64353 4.4882V4.0087C9.64353 3.61459 9.89679 3.2951 10.2092 3.2951H10.5893C13.0556 3.2951 14.8544 2.44182 16.4257 0.52758L16.6921 0.202877C16.9118 -0.0676258 17.2625 -0.0676258 17.4823 0.202877L17.7486 0.52758C19.296 2.44182 21.0948 3.2951 23.5671 3.2951H23.9472C24.2573 3.29924 24.5069 3.61752 24.5069 4.0087ZM20.4603 8.40728L19.7181 7.46338C19.5243 7.22052 19.2115 7.22052 19.0177 7.46338L16.2282 10.9823L15.1387 9.61548C14.943 9.37863 14.6341 9.37863 14.4384 9.61548L13.6901 10.5707C13.4976 10.8151 13.4976 11.2098 13.6901 11.4542L15.872 14.2066C16.0658 14.4495 16.3786 14.4495 16.5724 14.2066L20.4633 9.29833C20.5572 9.1801 20.6098 9.01939 20.6092 8.85202C20.6087 8.68464 20.555 8.5245 20.4603 8.40728Z" fill="#1EA01E"/>
</svg>
