<svg width="60" height="60" viewBox="0 0 60 60" fill="none" xmlns="http://www.w3.org/2000/svg">
<path d="M60 30C60 46.5685 46.5685 60 30 60C13.4315 60 0 46.5685 0 30C0 13.4315 13.4315 0 30 0C46.5685 0 60 13.4315 60 30Z" fill="url(#paint0_linear)"/>
<path d="M57.5 30C57.5 45.1878 45.1878 57.5 30 57.5C14.8122 57.5 2.5 45.1878 2.5 30C2.5 14.8122 14.8122 2.5 30 2.5C45.1878 2.5 57.5 14.8122 57.5 30Z" stroke="url(#paint1_linear)"/>
<path d="M14.7692 23.8563C14.7692 21.3866 16.7713 19.3845 19.241 19.3845H35.8503C38.32 19.3845 40.3221 21.3866 40.3221 23.8563V35.9939C40.3221 38.4635 38.32 40.4656 35.8503 40.4656H19.241C16.7713 40.4656 14.7692 38.4635 14.7692 35.9939V23.8563Z" fill="url(#paint2_linear)"/>
<path d="M32.3367 29.9251L40.3313 34.6278L40.3313 25.2224L32.3367 29.9251Z" fill="black" fill-opacity="0.4"/>
<path d="M32.3367 29.925L45.2572 37.5253C46.7477 38.4021 48.6267 37.3274 48.6267 35.5981L48.6267 24.252C48.6267 22.5227 46.7477 21.448 45.2572 22.3248L32.3367 29.925Z" fill="url(#paint3_linear)" fill-opacity="0.7"/>
<path d="M32.3367 29.9249L25.15 34.0742C24.0853 34.6889 22.7544 33.9205 22.7544 32.6911L22.7544 27.1588C22.7544 25.9294 24.0853 25.161 25.15 25.7757L32.3367 29.9249Z" fill="white"/>
<defs>
<linearGradient id="paint0_linear" x1="14.8182" y1="1.54546" x2="44.4545" y2="61.4545" gradientUnits="userSpaceOnUse">
<stop stop-color="#FFE86D"/>
<stop offset="1" stop-color="#F0C52B"/>
</linearGradient>
<linearGradient id="paint1_linear" x1="2" y1="58" x2="55.5" y2="4.5" gradientUnits="userSpaceOnUse">
<stop stop-color="#F06A08"/>
<stop offset="1" stop-color="#FDB64B"/>
</linearGradient>
<linearGradient id="paint2_linear" x1="16.7963" y1="40.4656" x2="40.3908" y2="21.2494" gradientUnits="userSpaceOnUse">
<stop stop-color="#EF6907"/>
<stop offset="1" stop-color="#FF9D43"/>
</linearGradient>
<linearGradient id="paint3_linear" x1="48.6267" y1="23.268" x2="37.5024" y2="40.3111" gradientUnits="userSpaceOnUse">
<stop stop-color="#EF6907"/>
<stop offset="1" stop-color="#FF9D43"/>
</linearGradient>
</defs>
</svg>
